<?xml version="1.0" standalone="no"?>
<!DOCTYPE svg PUBLIC "-//W3C//DTD SVG 20010904//EN"
 "http://www.w3.org/TR/2001/REC-SVG-20010904/DTD/svg10.dtd">
<svg version="1.0" xmlns="http://www.w3.org/2000/svg"
 width="256.000000pt" height="256.000000pt" viewBox="0 0 256.000000 256.000000"
 preserveAspectRatio="xMidYMid meet">

<g transform="translate(0.000000,256.000000) scale(0.100000,-0.100000)"
fill="#000000" stroke="none">
<path d="M220 2430 c0 -16 5 -30 10 -30 6 0 10 14 10 30 0 17 -4 30 -10 30 -5
0 -10 -13 -10 -30z"/>
<path d="M150 2380 c0 -5 14 -10 31 -10 17 0 28 4 24 10 -3 6 -17 10 -31 10
-13 0 -24 -4 -24 -10z"/>
<path d="M260 2380 c0 -5 14 -10 31 -10 17 0 28 4 24 10 -3 6 -17 10 -31 10
-13 0 -24 -4 -24 -10z"/>
<path d="M220 2320 c0 -16 5 -30 10 -30 6 0 10 14 10 30 0 17 -4 30 -10 30 -5
0 -10 -13 -10 -30z"/>
<path d="M400 2320 c0 -11 5 -20 10 -20 6 0 10 9 10 20 0 11 -4 20 -10 20 -5
0 -10 -9 -10 -20z"/>
<path d="M350 2280 c0 -5 9 -10 20 -10 11 0 20 5 20 10 0 6 -9 10 -20 10 -11
0 -20 -4 -20 -10z"/>
<path d="M430 2280 c0 -5 6 -10 14 -10 8 0 18 5 21 10 3 6 -3 10 -14 10 -12 0
-21 -4 -21 -10z"/>
<path d="M400 2239 c0 -11 5 -17 10 -14 6 3 10 13 10 21 0 8 -4 14 -10 14 -5
0 -10 -9 -10 -21z"/>
<path d="M140 2217 c0 -8 11 -24 25 -37 19 -18 28 -21 37 -12 9 9 6 18 -12 37
-25 27 -50 33 -50 12z"/>
<path d="M266 2201 c-19 -20 -24 -31 -16 -36 13 -8 60 32 60 52 0 20 -14 16
-44 -16z"/>
<path d="M161 2096 c-34 -36 -16 -54 20 -20 16 15 29 31 29 36 0 16 -27 7 -49
-16z"/>
<path d="M246 2112 c-3 -5 8 -22 24 -37 26 -25 30 -26 36 -11 11 29 -44 74
-60 48z"/>
<path d="M542 2015 c-52 -23 -91 -54 -123 -98 -42 -58 -37 -79 9 -35 45 44 80
61 153 77 31 6 64 18 74 25 18 13 18 14 -1 24 -36 19 -79 22 -112 7z"/>
<path d="M1773 2005 c-24 -14 -43 -30 -43 -36 0 -6 44 -9 108 -7 91 1 114 -1
156 -20 62 -28 65 -28 35 4 -34 37 -108 72 -165 79 -41 5 -56 2 -91 -20z"/>
<path d="M1975 1863 c-11 -2 -81 -25 -155 -50 -117 -40 -147 -46 -225 -47 -82
-1 -96 2 -159 32 -38 18 -71 31 -73 28 -9 -9 11 -56 39 -90 36 -44 111 -84
173 -92 65 -9 122 9 290 92 131 66 159 76 220 81 52 4 80 1 109 -11 48 -20 62
-20 45 0 -28 34 -93 57 -169 60 -41 2 -84 0 -95 -3z"/>
<path d="M702 1618 c-45 -15 -118 -82 -145 -132 -31 -58 -31 -174 0 -232 52
-98 128 -144 238 -144 110 0 186 46 238 144 30 58 31 174 0 232 -27 50 -75 98
-122 121 -43 20 -161 27 -209 11z m45 -120 c43 -40 18 -108 -40 -108 -38 0
-50 7 -66 37 -15 30 -14 36 10 67 25 32 64 34 96 4z"/>
<path d="M1662 1601 c-149 -51 -218 -222 -147 -367 78 -159 295 -193 423 -66
50 51 72 105 72 185 0 119 -71 219 -181 251 -67 20 -101 20 -167 -3z m28 -131
c11 -11 20 -29 20 -40 0 -24 -42 -70 -63 -70 -26 0 -67 41 -67 66 0 31 33 64
65 64 14 0 34 -9 45 -20z"/>
<path d="M1172 790 c-138 -37 -262 -126 -262 -187 0 -31 34 -38 123 -24 223
36 280 37 442 6 116 -22 141 -20 177 15 25 26 29 36 24 63 -9 45 -61 93 -125
119 -82 31 -278 36 -379 8z m131 -117 c-7 -2 -19 -2 -25 0 -7 3 -2 5 12 5 14
0 19 -2 13 -5z"/>
<path d="M2177 778 c-7 -23 -1 -38 14 -38 5 0 9 14 9 30 0 35 -15 40 -23 8z"/>
<path d="M500 735 c0 -29 3 -36 18 -33 11 2 17 13 17 33 0 20 -6 31 -17 33
-15 3 -18 -4 -18 -33z"/>
<path d="M2113 718 c2 -7 14 -13 27 -13 13 0 25 6 28 13 2 8 -7 12 -28 12 -21
0 -30 -4 -27 -12z"/>
<path d="M2213 718 c2 -7 14 -13 27 -13 13 0 25 6 28 13 2 8 -7 12 -28 12 -21
0 -30 -4 -27 -12z"/>
<path d="M2176 692 c-7 -12 5 -52 15 -52 5 0 9 14 9 30 0 28 -13 40 -24 22z"/>
<path d="M422 673 c4 -20 45 -28 67 -14 22 14 3 31 -35 31 -28 0 -35 -4 -32
-17z"/>
<path d="M544 679 c-9 -15 16 -30 46 -27 14 2 26 10 28 21 3 13 -4 17 -32 17
-19 0 -38 -5 -42 -11z"/>
<path d="M2020 670 c0 -11 5 -20 10 -20 6 0 10 9 10 20 0 11 -4 20 -10 20 -5
0 -10 -9 -10 -20z"/>
<path d="M504 637 c-9 -25 0 -62 16 -62 10 0 15 10 15 34 0 36 -21 54 -31 28z"/>
<path d="M1970 630 c0 -5 9 -10 20 -10 11 0 20 5 20 10 0 6 -9 10 -20 10 -11
0 -20 -4 -20 -10z"/>
<path d="M2033 625 c-15 -17 -17 -59 -3 -50 6 3 10 15 10 26 0 12 7 19 19 19
11 0 23 5 26 10 10 16 -38 11 -52 -5z"/>
<path d="M2115 579 c-8 -12 33 -59 52 -59 20 0 15 24 -10 48 -26 25 -33 27
-42 11z"/>
<path d="M2232 567 c-25 -27 -28 -47 -8 -47 18 0 58 49 50 61 -8 14 -19 11
-42 -14z"/>
<path d="M224 549 c-3 -6 10 -27 29 -47 31 -31 37 -33 43 -18 4 11 -3 27 -22
47 -30 32 -39 35 -50 18z"/>
<path d="M365 530 c-26 -28 -28 -32 -13 -46 14 -14 19 -13 48 14 23 19 31 34
27 45 -9 25 -30 21 -62 -13z"/>
<path d="M1254 499 c-17 -5 -36 -15 -42 -21 -8 -10 15 -13 114 -13 68 0 124 1
124 2 0 2 -18 12 -40 23 -41 21 -102 25 -156 9z"/>
<path d="M2130 465 c-18 -19 -21 -28 -12 -37 9 -9 18 -6 37 12 14 13 25 29 25
37 0 21 -25 15 -50 -12z"/>
<path d="M2216 482 c-8 -13 23 -52 40 -52 20 0 18 24 -4 43 -21 19 -28 21 -36
9z"/>
<path d="M245 400 c-22 -23 -26 -33 -17 -42 9 -9 19 -5 42 17 31 30 39 55 17
55 -7 0 -26 -14 -42 -30z"/>
<path d="M346 422 c-6 -10 48 -72 63 -72 19 0 12 36 -12 58 -24 23 -42 28 -51
14z"/>
</g>
</svg>
