<?xml version="1.0" standalone="no"?>
<!DOCTYPE svg PUBLIC "-//W3C//DTD SVG 20010904//EN"
 "http://www.w3.org/TR/2001/REC-SVG-20010904/DTD/svg10.dtd">
<svg version="1.0" xmlns="http://www.w3.org/2000/svg"
 width="920.000000pt" height="920.000000pt" viewBox="0 0 920.000000 920.000000"
 preserveAspectRatio="xMidYMid meet">

<g transform="translate(0.000000,920.000000) scale(0.100000,-0.100000)"
fill="#000000" stroke="none">
<path d="M4170 7489 c-703 -70 -1297 -362 -1778 -873 -393 -417 -653 -979
-717 -1547 -17 -157 -20 -449 -4 -605 23 -239 100 -545 194 -769 142 -340 334
-625 600 -890 404 -404 882 -657 1445 -763 244 -47 659 -54 900 -17 574 89
1087 342 1496 738 196 188 325 348 457 566 200 329 326 699 379 1111 16 127
16 480 0 610 -118 952 -672 1742 -1517 2163 -365 181 -743 273 -1165 282 -107
2 -238 -1 -290 -6z m544 -194 c356 -42 751 -181 1051 -370 376 -236 699 -582
903 -965 110 -206 203 -457 250 -680 67 -312 69 -710 6 -1030 -100 -506 -345
-961 -711 -1322 -217 -215 -406 -349 -678 -483 -255 -125 -481 -195 -785 -242
-160 -24 -519 -24 -685 0 -574 85 -1063 327 -1461 722 -214 213 -359 411 -490
670 -264 524 -337 1104 -214 1706 53 256 204 616 357 849 335 509 848 891
1423 1058 154 45 316 78 440 91 144 14 455 12 594 -4z"/>
<path d="M3395 5847 c-67 -22 -104 -46 -152 -95 -176 -183 -174 -525 4 -706
70 -71 139 -101 233 -101 63 0 84 5 133 29 141 72 230 235 230 426 0 247 -150
444 -345 456 -36 2 -80 -2 -103 -9z"/>
<path d="M5130 5843 c-69 -25 -127 -69 -175 -134 -58 -78 -85 -161 -92 -279
-9 -155 33 -281 127 -379 71 -74 143 -106 240 -106 66 0 82 4 138 34 75 41
131 101 172 185 71 144 67 350 -8 490 -36 68 -115 146 -177 175 -65 31 -163
37 -225 14z"/>
<path d="M5560 4628 c-96 -167 -183 -327 -193 -358 -29 -84 -20 -198 21 -282
147 -300 557 -300 704 0 31 62 33 73 33 172 l0 105 -59 110 c-32 61 -69 126
-81 145 -12 19 -71 119 -130 223 -59 103 -111 187 -114 187 -4 0 -85 -136
-181 -302z"/>
<path d="M4220 4095 c-370 -70 -676 -341 -793 -700 -30 -91 -47 -186 -47 -262
l0 -53 88 0 88 0 11 93 c24 199 98 351 243 498 145 146 290 220 489 250 373
54 762 -180 898 -540 29 -77 53 -194 53 -257 l0 -44 96 0 96 0 -7 78 c-25 287
-163 547 -389 728 -99 80 -269 166 -386 194 -111 28 -333 35 -440 15z"/>
<path d="M3841 185 c1 -19 18 -51 18 -35 0 8 -4 22 -9 30 -5 8 -9 11 -9 5z"/>
<path d="M3871 183 c-2 -17 10 -43 19 -43 4 0 10 12 13 27 5 25 4 26 -8 10
-13 -18 -13 -18 -18 0 -3 10 -5 13 -6 6z"/>
<path d="M3926 170 c7 -28 12 -35 18 -29 2 2 -2 15 -10 29 l-15 25 7 -25z"/>
<path d="M4022 169 c-14 -23 -15 -29 -3 -29 5 0 12 8 14 18 4 16 5 16 6 0 0
-10 6 -18 11 -18 13 0 12 11 -3 32 -12 15 -14 15 -25 -3z"/>
<path d="M4114 165 c1 -11 9 -21 19 -23 13 -3 17 3 16 25 -1 23 -2 24 -6 6 -5
-27 -20 -30 -26 -5 -3 13 -4 12 -3 -3z"/>
<path d="M4228 183 c7 -3 16 -2 19 1 4 3 -2 6 -13 5 -11 0 -14 -3 -6 -6z"/>
<path d="M4271 163 c1 -23 2 -24 6 -5 2 12 8 22 13 22 5 0 7 -6 4 -14 -3 -8
-1 -16 4 -20 5 -3 8 5 7 17 -1 12 -9 23 -18 25 -13 3 -17 -3 -16 -25z"/>
<path d="M4345 180 c3 -5 8 -10 11 -10 2 0 4 5 4 10 0 6 -5 10 -11 10 -5 0 -7
-4 -4 -10z"/>
<path d="M4390 181 c0 -5 9 -7 20 -4 11 3 20 7 20 9 0 2 -9 4 -20 4 -11 0 -20
-4 -20 -9z"/>
<path d="M4445 179 c-4 -6 -4 -13 -1 -16 3 -4 6 -1 6 5 0 15 26 16 35 2 3 -6
-4 -14 -17 -19 -22 -9 -22 -10 -2 -10 23 -1 34 15 27 37 -6 15 -39 16 -48 1z"/>
<path d="M4564 175 c-4 -9 -2 -21 4 -27 15 -15 44 -1 40 19 -4 23 -36 29 -44
8z m36 -10 c0 -8 -7 -15 -15 -15 -8 0 -15 7 -15 15 0 8 7 15 15 15 8 0 15 -7
15 -15z"/>
<path d="M4632 165 c0 -16 2 -24 5 -17 3 9 9 10 18 2 9 -8 11 -4 7 16 -3 16
-7 22 -12 14 -6 -9 -9 -9 -13 1 -3 8 -5 1 -5 -16z"/>
<path d="M4692 165 c0 -16 2 -22 5 -12 2 9 2 23 0 30 -3 6 -5 -1 -5 -18z"/>
<path d="M4730 174 c0 -8 5 -12 10 -9 6 4 8 11 5 16 -9 14 -15 11 -15 -7z"/>
<path d="M4756 174 c-8 -22 -7 -34 3 -34 5 0 9 11 9 25 0 29 -3 31 -12 9z"/>
<path d="M4796 181 c-3 -4 6 -6 19 -3 14 2 25 6 25 8 0 8 -39 4 -44 -5z"/>
<path d="M4870 180 c10 -6 11 -10 3 -10 -7 0 -13 -5 -13 -11 0 -8 5 -8 15 1
20 17 19 30 -2 30 -15 0 -16 -2 -3 -10z"/>
<path d="M4907 168 c-8 -31 0 -36 12 -7 7 16 10 19 10 7 1 -9 5 -20 11 -23 6
-4 7 2 1 16 -11 31 -27 34 -34 7z"/>
<path d="M4978 183 c6 -2 18 -2 25 0 6 3 1 5 -13 5 -14 0 -19 -2 -12 -5z"/>
<path d="M5030 165 c0 -17 5 -25 18 -24 10 0 12 3 5 6 -7 2 -13 11 -13 18 0 7
6 16 13 18 7 3 5 6 -5 6 -13 1 -18 -7 -18 -24z"/>
<path d="M5085 180 c-3 -6 2 -13 11 -17 16 -6 16 -7 -2 -14 -17 -7 -17 -8 4
-8 13 -1 22 5 22 14 0 8 -6 15 -12 15 -9 0 -8 4 2 10 13 8 13 10 -2 10 -9 0
-20 -5 -23 -10z"/>
<path d="M5188 183 c6 -2 18 -2 25 0 6 3 1 5 -13 5 -14 0 -19 -2 -12 -5z"/>
<path d="M5237 183 c-3 -5 6 -8 19 -8 13 0 24 3 24 8 0 4 -9 7 -19 7 -11 0
-22 -3 -24 -7z"/>
<path d="M5300 165 c0 -14 2 -25 4 -25 2 0 6 11 8 25 3 14 1 25 -3 25 -5 0 -9
-11 -9 -25z"/>
<path d="M5330 175 c-8 -9 -8 -15 -2 -15 12 0 26 19 19 26 -2 2 -10 -2 -17
-11z"/>
<path d="M4231 154 c0 -11 3 -14 6 -6 3 7 2 16 -1 19 -3 4 -6 -2 -5 -13z"/>
<path d="M4327 156 c-3 -6 6 -11 19 -11 29 0 32 11 5 18 -11 3 -22 0 -24 -7z"/>
<path d="M4825 160 c6 -10 3 -12 -13 -8 -12 4 -20 2 -16 -3 7 -12 44 -12 44 0
0 6 -5 13 -12 17 -7 5 -8 3 -3 -6z"/>
<path d="M4966 156 c8 -22 44 -21 44 2 0 14 -2 14 -9 3 -8 -12 -12 -13 -25 -1
-14 11 -16 10 -10 -4z"/>
<path d="M5176 156 c3 -9 16 -16 28 -15 14 0 16 2 6 6 -8 3 -21 10 -28 16 -9
7 -11 6 -6 -7z"/>
<path d="M3960 150 c0 -5 5 -10 10 -10 6 0 10 5 10 10 0 6 -4 10 -10 10 -5 0
-10 -4 -10 -10z"/>
<path d="M4390 149 c0 -5 9 -9 20 -9 11 0 20 2 20 4 0 2 -9 6 -20 9 -11 3 -20
1 -20 -4z"/>
<path d="M5255 150 c-19 -8 -19 -9 3 -9 12 -1 22 4 22 9 0 6 -1 10 -2 9 -2 0
-12 -4 -23 -9z"/>
<path d="M4178 143 c6 -2 18 -2 25 0 6 3 1 5 -13 5 -14 0 -19 -2 -12 -5z"/>
<path d="M4528 143 c7 -3 16 -2 19 1 4 3 -2 6 -13 5 -11 0 -14 -3 -6 -6z"/>
</g>
</svg>
