<?xml version="1.0" standalone="no"?>
<!DOCTYPE svg PUBLIC "-//W3C//DTD SVG 20010904//EN"
 "http://www.w3.org/TR/2001/REC-SVG-20010904/DTD/svg10.dtd">
<svg version="1.0" xmlns="http://www.w3.org/2000/svg"
 width="600.000000pt" height="509.000000pt" viewBox="0 0 600.000000 509.000000"
 preserveAspectRatio="xMidYMid meet">

<g transform="translate(0.000000,509.000000) scale(0.100000,-0.100000)"
fill="#000000" stroke="none">
<path d="M1415 2923 c-46 -24 -66 -45 -86 -88 -18 -38 -19 -90 -19 -1017 l0
-978 -158 0 c-163 0 -182 -4 -182 -42 0 -16 134 -138 152 -138 4 0 8 -3 8 -7
0 -5 -188 -7 -417 -5 -230 1 -428 0 -440 -3 -13 -3 -23 -12 -23 -20 0 -13 325
-15 2726 -15 2590 0 2725 1 2722 18 -3 16 -30 17 -367 20 l-364 2 39 29 c22
16 57 47 78 69 36 38 38 44 28 67 -10 21 -18 25 -52 25 -35 0 -41 3 -53 33 -8
18 -31 47 -52 65 -20 18 -36 34 -34 35 120 76 149 109 149 172 0 56 -47 113
-102 121 l-38 7 25 29 c37 43 33 106 -14 263 -60 200 -79 243 -122 285 l-38
37 -3 465 -3 464 -27 41 c-16 24 -44 49 -70 62 l-44 21 -1595 0 c-1435 -1
-1597 -2 -1624 -17z m3253 -38 c18 -11 42 -34 53 -51 18 -30 19 -54 19 -484
l0 -452 -25 6 c-14 4 -45 9 -68 12 l-44 6 16 47 c9 25 24 52 35 60 42 31 63
150 30 169 -13 7 -14 15 -5 48 6 21 11 64 11 96 0 54 -2 58 -45 96 l-45 40 0
121 0 121 -1555 0 -1555 0 0 -850 0 -850 1233 0 1232 0 42 -22 42 -22 -40 -37
c-23 -21 -41 -49 -45 -67 l-6 -32 -1299 0 -1299 0 0 980 c0 1039 -1 1012 44
1049 49 41 22 40 1666 38 1555 -2 1575 -2 1608 -22z m-2698 -320 l0 -25 -165
0 -165 0 0 25 0 25 165 0 165 0 0 -25z m660 -25 c0 -17 -7 -20 -50 -20 -43 0
-50 3 -50 20 0 17 7 20 50 20 43 0 50 -3 50 -20z m905 -35 c0 -19 -8 -20 -247
-23 l-248 -2 0 25 0 25 248 -2 c239 -3 247 -4 247 -23z m-1385 -25 c0 -19 -7
-20 -170 -20 -163 0 -170 1 -170 20 0 19 7 20 170 20 163 0 170 -1 170 -20z
m478 -22 c-3 -20 -9 -23 -48 -23 -39 0 -45 3 -48 23 -3 20 0 22 48 22 48 0 51
-2 48 -22z m-260 -55 l3 -23 -220 0 c-221 0 -240 3 -227 36 5 12 39 14 223 12
218 -3 218 -3 221 -25z m262 -33 c0 -17 -7 -20 -50 -20 -43 0 -50 3 -50 20 0
17 7 20 50 20 43 0 50 -3 50 -20z m-262 -55 c3 -2 2 -11 -1 -20 -6 -13 -37
-15 -221 -15 -212 0 -234 3 -223 33 3 9 60 11 223 9 120 -2 220 -5 222 -7z
m262 -25 c0 -17 -7 -20 -50 -20 -43 0 -50 3 -50 20 0 17 7 20 50 20 43 0 50
-3 50 -20z m1814 -55 c60 -25 112 -42 117 -39 5 3 9 15 9 28 0 12 3 26 7 29
13 13 43 -27 49 -65 7 -42 19 -49 29 -17 6 16 9 18 22 8 26 -22 -9 -139 -42
-139 -9 0 -19 -18 -26 -46 -16 -61 -71 -120 -122 -129 -83 -16 -154 45 -179
153 -7 28 -16 52 -20 52 -5 0 -8 -4 -8 -10 0 -5 -4 -10 -9 -10 -16 0 -32 57
-29 101 l4 44 13 -32 c16 -42 27 -35 34 20 7 47 26 97 37 97 4 0 55 -20 114
-45z m-1814 -31 c0 -24 -2 -25 -47 -22 -41 3 -48 6 -51 26 -3 20 0 22 47 22
48 0 51 -2 51 -26z m-260 -4 c0 -19 -7 -20 -225 -20 -218 0 -225 1 -225 20 0
19 7 20 225 20 218 0 225 -1 225 -20z m1220 0 c0 -19 -7 -20 -135 -20 -128 0
-135 1 -135 20 0 19 7 20 135 20 128 0 135 -1 135 -20z m378 -2 c3 -16 -9 -18
-137 -18 -135 0 -141 1 -141 20 0 20 5 20 137 18 122 -3 138 -5 141 -20z m272
14 c0 -23 -30 -32 -102 -32 -71 0 -78 2 -78 20 0 19 7 20 90 20 50 0 90 -4 90
-8z m-1610 -92 c0 -17 -7 -20 -50 -20 -43 0 -50 3 -50 20 0 17 7 20 50 20 43
0 50 -3 50 -20z m-260 -20 c0 -19 -7 -20 -225 -20 -218 0 -225 1 -225 20 0 19
7 20 225 20 218 0 225 -1 225 -20z m1590 -55 l0 -25 -434 0 c-292 0 -437 3
-441 10 -4 6 -4 17 -1 25 5 13 69 15 441 15 l435 0 0 -25z m282 8 c10 -9 18
-19 18 -24 0 -4 -44 -6 -97 -6 -79 2 -98 5 -99 17 -1 27 7 30 83 30 57 0 81
-4 95 -17z m-1612 -13 c0 -17 -7 -20 -50 -20 -43 0 -50 3 -50 20 0 17 7 20 50
20 43 0 50 -3 50 -20z m-260 -40 c0 -19 -7 -20 -225 -20 -218 0 -225 1 -225
20 0 19 7 20 225 20 218 0 225 -1 225 -20z m260 -46 c0 -24 -2 -25 -47 -22
-41 3 -48 6 -51 26 -3 20 0 22 47 22 48 0 51 -2 51 -26z m-260 -54 c0 -19 -7
-20 -225 -20 -218 0 -225 1 -225 20 0 19 7 20 225 20 218 0 225 -1 225 -20z
m1978 -32 c8 -71 136 -98 207 -44 24 19 35 35 35 53 0 25 1 25 50 19 79 -11
123 -29 138 -56 10 -19 12 -54 7 -142 -3 -65 -8 -125 -11 -133 -5 -13 -45 -15
-308 -13 l-301 3 -13 95 c-7 52 -11 115 -10 140 3 51 26 69 118 94 71 19 84
17 88 -16z m-1718 2 c0 -17 -7 -20 -50 -20 -43 0 -50 3 -50 20 0 17 7 20 50
20 43 0 50 -3 50 -20z m590 0 c0 -20 -5 -20 -137 -18 -122 3 -138 5 -141 21
-3 15 9 17 137 17 135 0 141 -1 141 -20z m1350 1 c0 -17 -51 -50 -86 -57 -23
-4 -45 0 -71 12 -50 25 -58 49 -9 29 47 -20 74 -19 116 4 42 22 50 24 50 12z
m310 -186 c50 -152 80 -266 80 -302 0 -19 -9 -47 -20 -63 -18 -25 -95 -70
-120 -70 -6 0 -10 54 -10 144 0 80 -4 147 -8 150 -5 3 -2 51 5 108 7 57 10
121 7 143 l-5 40 20 -30 c12 -16 34 -70 51 -120z m-750 -95 c0 -30 -2 -116 -5
-191 l-6 -137 -36 11 c-45 14 -99 64 -109 101 -10 41 51 276 92 355 8 14 14
31 14 36 0 6 8 22 18 35 17 25 17 24 25 -65 4 -49 7 -115 7 -145z m-1500 200
c0 -17 -7 -20 -50 -20 -43 0 -50 3 -50 20 0 17 7 20 50 20 43 0 50 -3 50 -20z
m0 -85 c0 -23 -3 -25 -50 -25 -42 0 -50 3 -50 18 0 27 9 32 57 32 39 0 43 -2
43 -25z m1410 19 c0 -3 -5 -14 -10 -25 -10 -18 -26 -19 -480 -19 l-470 0 0 25
0 25 480 0 c264 0 480 -3 480 -6z m-1410 -104 c0 -17 -7 -20 -50 -20 -43 0
-50 3 -50 20 0 17 7 20 50 20 43 0 50 -3 50 -20z m1363 -30 c-5 -20 -14 -20
-459 -20 -447 0 -454 0 -454 20 0 20 7 20 459 20 454 0 459 0 454 -20z m-1363
-50 c0 -17 -7 -20 -50 -20 -43 0 -50 3 -50 20 0 17 7 20 50 20 43 0 50 -3 50
-20z m2160 -225 l0 -215 -322 2 -323 3 -3 200 c-1 110 0 205 2 212 4 10 75 13
326 13 l320 0 0 -215z m-2160 140 c0 -23 -3 -25 -50 -25 -42 0 -50 3 -50 18 0
27 9 32 57 32 39 0 43 -2 43 -25z m0 -85 c0 -17 -7 -20 -50 -20 -43 0 -50 3
-50 20 0 17 7 20 50 20 43 0 50 -3 50 -20z m380 -20 c0 -18 -7 -20 -85 -20
-78 0 -85 2 -85 20 0 18 7 20 85 20 78 0 85 -2 85 -20z m263 6 c9 -23 -2 -26
-90 -26 -76 0 -83 2 -83 20 0 18 7 20 84 20 63 0 85 -4 89 -14z m267 -6 c0
-18 -7 -20 -85 -20 -78 0 -85 2 -85 20 0 18 7 20 85 20 78 0 85 -2 85 -20z
m-910 -60 c0 -17 -7 -20 -50 -20 -43 0 -50 3 -50 20 0 17 7 20 50 20 43 0 50
-3 50 -20z m1454 -45 c33 -14 36 -19 36 -54 0 -37 -2 -39 -35 -43 -29 -3 -35
-1 -30 11 5 12 3 13 -5 5 -9 -9 -9 -18 1 -35 7 -13 13 -27 12 -30 -3 -9 13
-11 217 -18 167 -6 201 -10 237 -27 24 -12 40 -24 36 -28 -4 -4 0 -4 9 -1 18
7 78 -20 78 -35 0 -5 -10 -19 -22 -31 -13 -12 -17 -18 -9 -14 9 5 12 3 8 -6
-3 -8 -11 -31 -18 -51 -11 -33 -16 -38 -43 -38 -50 0 -250 51 -263 68 -8 10
-13 11 -13 4 0 -7 -5 -12 -11 -12 -5 0 -7 5 -3 12 4 6 3 8 -3 5 -16 -10 -114
24 -106 36 4 6 0 8 -11 4 -10 -4 -42 5 -79 24 -111 54 -119 60 -113 76 4 11 2
13 -9 10 -19 -8 -28 9 -27 52 0 28 -1 32 -8 16 -8 -19 -9 -19 -9 3 -1 32 27
84 41 76 6 -4 8 -3 4 4 -18 29 80 41 138 17z m43 -131 c-3 -3 -12 -4 -19 -1
-8 3 -5 6 6 6 11 1 17 -2 13 -5z m710 0 c-3 -3 -12 -4 -19 -1 -8 3 -5 6 6 6
11 1 17 -2 13 -5z m20 -139 c65 -29 133 -89 133 -117 0 -28 -15 -21 -33 16
-13 28 -32 42 -92 71 -45 22 -97 39 -130 42 -30 3 -55 10 -55 16 0 18 117 0
177 -28z m-159 -24 c-19 -38 -53 -81 -64 -81 -18 0 -18 0 5 53 16 38 23 45 41
40 11 -3 19 -8 18 -12z m-652 -23 c-21 -17 -47 -45 -57 -62 -18 -29 -19 -30
-19 -7 0 28 69 101 96 101 14 0 9 -8 -20 -32z m162 -70 c14 -16 13 -18 -1 -18
-21 0 -47 38 -47 70 1 25 1 25 17 -5 8 -16 22 -38 31 -47z m-68 44 c0 -10 7
-28 16 -40 13 -20 13 -22 0 -22 -8 0 -20 9 -26 19 -13 25 -13 61 0 61 6 0 10
-8 10 -18z m-32 -24 c6 -17 9 -34 6 -37 -8 -9 -34 30 -34 51 0 28 14 21 28
-14z m692 28 c0 -18 -25 -66 -34 -66 -10 0 -11 8 -2 35 6 19 17 35 23 35 7 0
13 -2 13 -4z m30 -23 c0 -22 -17 -50 -25 -42 -6 7 11 59 20 59 3 0 5 -8 5 -17z
m40 -17 c0 -15 -18 -31 -26 -23 -7 7 7 37 17 37 5 0 9 -6 9 -14z m210 -65 c0
-5 -27 -34 -60 -65 -47 -43 -75 -60 -126 -76 -65 -20 -85 -20 -1829 -20 -1119
0 -1781 4 -1814 10 -29 5 -67 17 -84 25 -38 18 -157 114 -157 126 0 5 861 9
2035 9 1186 0 2035 -4 2035 -9z"/>
<path d="M4345 2130 c-8 -12 20 -24 35 -15 6 3 8 11 5 16 -8 12 -32 12 -40 -1z"/>
<path d="M4540 2125 c0 -8 9 -15 20 -15 11 0 20 7 20 15 0 8 -9 15 -20 15 -11
0 -20 -7 -20 -15z"/>
<path d="M4511 1960 c-26 -22 -52 -25 -84 -9 -21 10 -21 10 -3 -5 28 -23 61
-20 93 9 33 29 29 33 -6 5z"/>
<path d="M4095 1060 c-3 -5 1 -10 9 -10 9 0 16 5 16 10 0 6 -4 10 -9 10 -6 0
-13 -4 -16 -10z"/>
<path d="M4320 1066 c7 -6 129 -11 135 -4 3 3 -27 6 -67 7 -40 1 -70 0 -68 -3z"/>
</g>
</svg>
