<?xml version="1.0" standalone="no"?>
<!DOCTYPE svg PUBLIC "-//W3C//DTD SVG 20010904//EN"
 "http://www.w3.org/TR/2001/REC-SVG-20010904/DTD/svg10.dtd">
<svg version="1.0" xmlns="http://www.w3.org/2000/svg"
 width="600.000000pt" height="600.000000pt" viewBox="0 0 600.000000 600.000000"
 preserveAspectRatio="xMidYMid meet">

<g transform="translate(0.000000,600.000000) scale(0.100000,-0.100000)"
fill="#000000" stroke="none">
<path d="M2037 3734 c-96 -23 -167 -63 -243 -139 -77 -76 -141 -187 -151 -263
-5 -36 -2 -45 25 -72 34 -34 83 -40 118 -16 11 8 33 46 48 86 66 169 221 260
390 229 117 -21 196 -81 251 -191 19 -39 35 -77 35 -84 0 -21 51 -54 85 -54
40 0 82 31 90 68 14 65 -75 234 -168 318 -126 113 -312 159 -480 118z"/>
<path d="M3853 3736 c-147 -34 -280 -142 -352 -287 -50 -99 -55 -156 -16 -194
17 -18 35 -25 63 -25 48 0 73 24 101 100 42 110 128 195 226 222 60 16 164 13
223 -6 92 -31 180 -127 218 -240 19 -55 45 -76 95 -76 26 0 44 8 64 27 23 24
26 34 23 73 -10 103 -125 267 -237 339 -108 70 -276 97 -408 67z"/>
<path d="M2484 2366 c-29 -29 -34 -41 -34 -79 0 -72 81 -229 169 -330 l33 -36
51 38 c211 158 483 162 682 11 l63 -48 35 37 c48 51 91 117 137 212 44 91 48
115 25 163 -32 68 -15 66 -600 66 l-527 0 -34 -34z"/>
</g>
</svg>
